<svg id="Capa_1" enable-background="new 0 0 512 512" height="512" viewBox="0 0 512 512" width="512" xmlns="http://www.w3.org/2000/svg"><g><path d="m501.699 406.396h-491.397c-5.69 0-10.302-4.613-10.302-10.302v-339.462c0-5.69 4.612-10.302 10.302-10.302h491.397c5.69 0 10.302 4.612 10.302 10.302v339.462c-.001 5.689-4.613 10.302-10.302 10.302z" fill="#5766cb"/><path d="m491.187 46.33v360.065h10.511c5.69 0 10.302-4.612 10.302-10.302v-339.461c0-5.69-4.612-10.302-10.302-10.302z" fill="#3342aa"/><path d="m476.618 123.276v206.174c0 3.414-2.767 6.181-6.181 6.181h-4.225c-13.794 0-24.976 11.182-24.976 24.976v4.225c0 3.414-2.767 6.181-6.181 6.181h-358.11c-3.414 0-6.181-2.767-6.181-6.181v-4.225c0-13.794-11.182-24.976-24.976-24.976h-4.225c-3.414 0-6.181-2.767-6.181-6.181v-206.174c0-3.414 2.767-6.181 6.181-6.181h4.225c13.794 0 24.976-11.182 24.976-24.976v-4.225c0-3.414 2.767-6.181 6.181-6.181h358.11c3.414 0 6.181 2.767 6.181 6.181v4.225c0 13.794 11.182 24.976 24.976 24.976h4.225c3.414 0 6.181 2.767 6.181 6.181z" fill="#d8e2f1"/><g><g fill="#dd5790"><path d="m319.549 452.776-18.206 10.511c-4.927 2.845-11.228 1.157-14.073-3.771l-31.27-54.161 36.049-20.813 31.27 54.162c2.845 4.927 1.157 11.227-3.77 14.072z"/><path d="m192.452 452.776 18.206 10.511c4.927 2.845 11.228 1.157 14.073-3.771l31.269-54.161-36.049-20.813-31.27 54.162c-2.845 4.927-1.157 11.227 3.771 14.072z"/><path d="m319.55 453.777-18.205 10.511c-4.927 2.845-11.228 1.157-14.073-3.771l-19.159-33.183-12.113-20.979 36.048-20.813 14.663 25.392 16.61 28.771c2.844 4.927 1.156 11.227-3.771 14.072z"/><path d="m256 406.355-12.113 20.979-19.159 33.183c-2.845 4.927-9.145 6.615-14.073 3.771l-18.205-10.511c-4.927-2.845-6.615-9.145-3.771-14.072l16.61-28.771 14.663-25.392z"/></g><path d="m219.952 385.542 36.048 20.813-12.113 20.979c-14.382-2.112-27.577-7.909-38.598-16.401z" fill="#da387d"/><path d="m306.711 410.934c-11.02 8.492-24.216 14.288-38.598 16.401l-12.113-20.98 36.048-20.813z" fill="#da387d"/><circle cx="256" cy="344.956" fill="#ffe07d" r="62.439"/><circle cx="256" cy="344.956" fill="#ecc32e" r="27.057"/></g><path d="m318.439 107.287h-124.878c-4.267 0-7.726 3.459-7.726 7.726v33.301c0 4.267 3.459 7.726 7.726 7.726h124.878c4.268 0 7.726-3.459 7.726-7.726v-33.301c0-4.267-3.458-7.726-7.726-7.726z" fill="#ffe07d"/><g><path d="m401.691 222.642h-291.382c-4.267 0-7.726-3.459-7.726-7.726s3.459-7.726 7.726-7.726h291.383c4.268 0 7.726 3.459 7.726 7.726s-3.459 7.726-7.727 7.726z" fill="#a2b9e2"/></g><g><path d="m360.066 189.341h-208.131c-4.267 0-7.726-3.459-7.726-7.726s3.459-7.726 7.726-7.726h208.131c4.268 0 7.726 3.459 7.726 7.726s-3.459 7.726-7.726 7.726z" fill="#a2b9e2"/></g><g><path d="m401.691 255.943h-291.382c-4.267 0-7.726-3.459-7.726-7.726s3.459-7.726 7.726-7.726h291.383c4.268 0 7.726 3.459 7.726 7.726s-3.459 7.726-7.727 7.726z" fill="#a2b9e2"/></g><g><path d="m110.309 317.66c-1.977 0-3.955-.754-5.463-2.263-3.018-3.017-3.018-7.909 0-10.927l29.271-29.27c3.411-3.413 8.497-4.424 12.956-2.578 4.459 1.847 7.34 6.158 7.34 10.984v1.943l2.469-2.575c3.379-3.525 8.488-4.623 13.017-2.805 4.529 1.82 7.456 6.15 7.456 11.032v7.332c0 4.267-3.459 7.726-7.726 7.726-3.788 0-6.939-2.726-7.599-6.323l-2.596 2.708c-3.377 3.524-8.488 4.624-13.016 2.805-4.53-1.82-7.456-6.15-7.456-11.032v-2.207l-23.187 23.186c-1.511 1.51-3.489 2.264-5.466 2.264z" fill="#dd5790"/></g><g><path d="m342.375 317.66c-1.977 0-3.955-.755-5.464-2.263-3.017-3.017-3.017-7.909 0-10.927l29.27-29.27c3.413-3.412 8.5-4.426 12.958-2.577 4.458 1.847 7.339 6.158 7.339 10.984v1.942l2.469-2.575c3.378-3.524 8.488-4.625 13.016-2.804 4.529 1.82 7.456 6.15 7.456 11.032v7.332c0 4.267-3.459 7.726-7.726 7.726-3.788 0-6.94-2.726-7.6-6.323l-2.597 2.709c-3.377 3.523-8.488 4.623-13.015 2.805-4.529-1.82-7.456-6.15-7.456-11.032v-2.208l-23.186 23.187c-1.51 1.508-3.488 2.262-5.464 2.262z" fill="#dd5790"/></g></g></svg>